<svg xmlns="http://www.w3.org/2000/svg" height="800" width="1200" viewBox="-73.5 -24.125 637 144.75"><path d="M438.4 96.5c31.1 0 51.6-21.9 51.6-48 0-25-18.4-48.5-52.1-48.5-29.6 0-50.5 21.4-50.5 48-.5 27 20.4 48.5 51 48.5zM402.7 48c0-18.9 15.3-34.7 35.7-34.7 20.4 0 35.7 15.8 35.7 34.7 0 18.9-15.8 34.7-35.7 34.7-20.9 0-35.7-15.3-35.7-34.7z"/><path d="M265.9 16.8V3h-46.4v13.8h15.3v63.8h-15.3v13.8h46.4V80.6h-15.3V16.8zM105.7 3v13.8h15.8v63.8h-15.8v13.8h103.6V63.3h-15.8v17.4h-56.1V56.1h25v9.2h15.8V31.6h-15.8v10.7h-25V16.8h56.1v18.4h15.8V3zm-23 65.4c0 7.7-7.1 14.8-29.1 14.8-10.2 0-35.2-4.1-35.2-14.8v-6.1H2v31.6h15.8v-5.6c4.6 2.6 18.4 8.2 36.2 8.2 17.8 0 31.1-3.6 36.7-10.7 4.1-5.1 7.1-10.7 7.1-17.9 0-12.8-9.2-22.5-20.9-25-2-.5-10.2-1.5-14.8-1.5-13.3.5-26-.5-35.7-1.5-6.1-1-10.7-4.1-10.7-11.2 0-3.1 1-6.1 3.1-7.7 5.1-5.1 15.3-7.1 27.1-6.6 11.7.5 19.9 3.6 26.5 6.6 5.6 2.6 7.7 5.6 7.7 10.2v4.1H96V3H80.1v6.6C75 6.6 61.3 1 43.4 1 24.5 1 14.3 4.6 8.2 10.7 3.6 14.8 0 21.9 0 29.1 0 39.8 6.1 47.5 14.8 51c9.7 3.6 29.6 4.1 39.3 4.6 9.2.5 17.4 0 23 3.1 3.5 1.5 5.6 5.6 5.6 9.7zm259.8 26h47V80.6h-13.3L343 40.8l31.6-24h13.3V3h-45.4v13.8h9.7L306.8 52V16.8h15.3V3h-47v13.8h15.3v63.8h-15.3v13.8h47V80.6h-15.3V68.9l23.5-18.4 25 30.1h-12.8z"/></svg>